<svg width="187" height="40" viewBox="0 0 187 40" fill="none" xmlns="http://www.w3.org/2000/svg">
<g clip-path="url(#clip0_2299_829)">
<path d="M72.3413 34.2131L91.5044 34.174V39.6783H62.7783L81.9044 5.52612L66.8761 5.53265V0.0609131H91.5044L72.3413 34.2131Z" fill="white"/>
<path d="M40.4454 19.3521C40.4062 19.5173 40.4323 19.6912 40.5149 19.8412L41.1845 21.0325C41.2627 21.176 41.2193 21.3564 41.0823 21.4456L40.0062 22.139C39.9323 22.1869 39.8454 22.2021 39.7606 22.1782C39.6758 22.1564 39.6062 22.1021 39.5649 22.0238L38.4301 19.8934C38.4019 19.8434 38.391 19.789 38.3932 19.7304L38.5541 16.8804C38.5606 16.776 38.6171 16.6825 38.7062 16.6304L42.1149 14.6021C42.2171 14.5412 42.3019 14.4564 42.3584 14.3521L47.7519 5.56078L31.3584 5.52383V0.060791H57.3128L48.8454 14.5086L41.078 17.8564C40.8801 17.9412 40.7323 18.1173 40.6845 18.3282L40.4432 19.3543L40.4454 19.3521Z" fill="#00FF00"/>
<path d="M48.0196 25.0847L46.8652 25.7173L46.3783 24.5369C46.3152 24.3847 46.3826 24.2108 46.5326 24.1412L47.3935 23.7304C47.4717 23.6934 47.5587 23.6891 47.6391 23.7195C47.7174 23.7499 47.7804 23.8108 47.813 23.8912L47.8565 23.9956H47.8522L47.9174 24.1478L48.1522 24.6891C48.2174 24.8369 48.1587 25.0086 48.0174 25.0847H48.0196Z" fill="#00FF00"/>
<path d="M46.6069 26.1348L45.196 26.7957C45.1308 26.8261 45.059 26.8348 44.9873 26.8174L44.4525 25.5174L44.2395 25.0044C44.2177 24.95 44.2416 24.887 44.2938 24.8631L45.7069 24.1891C45.7438 24.1696 45.7764 24.1783 45.7938 24.1848C45.809 24.1913 45.8395 24.2065 45.8569 24.2457L46.0373 24.6805L46.5373 25.8978L46.6003 26.0522L46.6155 26.0891C46.6221 26.1261 46.6134 26.1283 46.6047 26.1348H46.6069Z" fill="#00FF00"/>
<path d="M57.3152 34.2131V39.6783H27.2609L37.1544 23.5153C37.2044 23.4261 37.237 23.324 37.2413 23.2218L37.5283 18.7087C37.5348 18.6261 37.5696 18.5522 37.6326 18.4979L38.1131 18.0696L38.0196 19.7109C38.0131 19.837 38.0413 19.9609 38.0978 20.0696L39.2326 22.1979C39.3217 22.3653 39.4783 22.4892 39.663 22.537C39.7196 22.5522 39.7761 22.5587 39.8348 22.5587C39.9652 22.5587 40.0935 22.5218 40.2044 22.45L41.2804 21.7566C41.5826 21.5609 41.6804 21.1631 41.5044 20.85L40.837 19.6587C40.7978 19.5913 40.787 19.5131 40.8044 19.437L41.0457 18.4109C41.0674 18.3153 41.1348 18.237 41.2261 18.1957L49.0457 14.8261L49.0652 14.8196L49.3391 14.7109C49.4326 14.674 49.5348 14.6827 49.6196 14.737C49.7044 14.7913 49.7565 14.8805 49.7631 14.9805L49.8413 16.2109C49.8478 16.3413 49.7717 16.4653 49.6522 16.5153L49.5935 16.5392L49.5652 16.55L49.4717 16.5892L45.4152 18.3957L45.5674 18.7348L49.5087 16.9827L49.6457 18.4544C49.6522 18.5174 49.6391 18.5805 49.6065 18.6348L49.5304 18.7674L46.487 20.2109L46.6478 20.5479L49.6391 19.1305C49.687 19.1805 49.7152 19.2435 49.7217 19.3153L49.8326 20.6283C49.8435 20.7566 49.7717 20.8805 49.6457 20.9392L49.4109 21.0696L49.3978 21.0761L47.4391 22.0153L47.6 22.3522L49.3239 21.5261L49.4239 22.9044C49.4348 23.024 49.3717 23.1392 49.2674 23.1979L48.1761 23.8153L48.1522 23.7522C48.0804 23.5783 47.9435 23.4435 47.7674 23.3761C47.5913 23.3087 47.4 23.3153 47.2304 23.3979L46.3696 23.8087C46.2739 23.8544 46.1935 23.9196 46.1326 23.9957C46.0783 23.9261 46.0065 23.8718 45.9261 23.8413C45.8022 23.7935 45.6631 23.8 45.5435 23.8566L44.1304 24.5305C43.9152 24.6327 43.8087 24.8761 43.8761 25.1022C43.7565 25.0914 43.6348 25.1131 43.5239 25.1653L42.6196 25.5957C42.2935 25.7522 42.1457 26.137 42.2826 26.4718L42.437 26.8479C42.3196 26.837 42.2 26.8587 42.0891 26.9131L41.0783 27.3935C40.75 27.5479 40.6044 27.9348 40.7413 28.2696L40.8087 28.4348L36.8174 34.2196H57.3087L57.3152 34.2131Z" fill="#00FF00"/>
<path d="M44.6474 26.9739V26.9826C44.617 27.0543 44.5648 27.113 44.4974 27.1478L43.2409 27.8043L43.0235 27.2804L42.6301 26.3239C42.567 26.1717 42.6344 25.9956 42.7822 25.926L43.6866 25.4956C43.7627 25.4586 43.8496 25.4565 43.9301 25.4869C44.0105 25.5173 44.0735 25.5782 44.104 25.6586L44.6453 26.9739H44.6474Z" fill="#00FF00"/>
<path d="M42.978 28.1499L41.7736 28.7934C41.6214 28.8738 41.4345 28.8173 41.354 28.6673L41.1866 28.3564L41.091 28.1195C41.028 27.9673 41.0953 27.7934 41.2432 27.7238L42.254 27.2412C42.3323 27.2043 42.4193 27.2021 42.4997 27.2325C42.578 27.2629 42.6388 27.3216 42.6736 27.3999C42.6736 27.3999 42.6736 27.4021 42.6736 27.4043L42.6801 27.4238L42.9714 28.1282V28.1347H42.9736C42.9736 28.1412 42.9758 28.1456 42.978 28.1477V28.1499Z" fill="#00FF00"/>
<path d="M5.46522 5.52576V15.1214H20.4913V20.5518H5.46522V34.2127H21.8565V39.6779H0V0.0605469H21.8565V5.52576H5.46522Z" fill="#00FF00"/>
<path d="M102.394 5.526V15.089H117.361V20.5521H102.394V34.213H118.729V39.6782H96.9111V0.060791H118.729V5.526H102.394Z" fill="white"/>
<path d="M136.977 1.15996L136.175 1.63551C136.025 1.37509 135.882 1.20527 135.746 1.12601C135.604 1.03542 135.422 0.990137 135.198 0.990137C134.923 0.990137 134.695 1.06798 134.514 1.22366C134.333 1.37651 134.243 1.56898 134.243 1.80112C134.243 2.12096 134.48 2.37855 134.956 2.57385L135.61 2.84135C136.142 3.05648 136.531 3.31972 136.777 3.63109C137.024 3.93964 137.147 4.31894 137.147 4.76901C137.147 5.37192 136.946 5.87012 136.544 6.26357C136.139 6.65985 135.637 6.85801 135.037 6.85801C134.468 6.85801 133.998 6.68957 133.627 6.35275C133.262 6.0159 133.034 5.54177 132.943 4.93035L133.945 4.70957C133.991 5.09453 134.07 5.36061 134.183 5.50779C134.387 5.79085 134.684 5.9324 135.075 5.9324C135.383 5.9324 135.64 5.82907 135.843 5.62244C136.047 5.41581 136.149 5.15396 136.149 4.83694C136.149 4.70957 136.131 4.59351 136.094 4.48877C136.06 4.3812 136.005 4.28355 135.928 4.19581C135.855 4.10522 135.759 4.02172 135.64 3.94529C135.521 3.86605 135.379 3.79103 135.215 3.72027L134.582 3.45701C133.685 3.07772 133.236 2.52292 133.236 1.79262C133.236 1.30009 133.425 0.888224 133.801 0.55705C134.177 0.223037 134.646 0.0560303 135.207 0.0560303C135.962 0.0560303 136.552 0.424011 136.977 1.15996ZM141.957 1.11327H139.329V2.68851H141.881V3.61835H139.329V5.80927H141.957V6.73912H138.34V0.183409H141.957V1.11327ZM146.628 3.3254H149.337V3.54194C149.337 4.03446 149.279 4.47038 149.163 4.84968C149.05 5.20068 148.859 5.52903 148.59 5.83472C147.981 6.51975 147.207 6.86225 146.267 6.86225C145.35 6.86225 144.564 6.53107 143.911 5.8687C143.257 5.20351 142.93 4.40527 142.93 3.47401C142.93 2.52292 143.262 1.71618 143.928 1.05383C144.593 0.388628 145.402 0.0560303 146.356 0.0560303C146.869 0.0560303 147.347 0.160763 147.791 0.370228C148.216 0.579696 148.633 0.919376 149.044 1.38925L148.339 2.06435C147.801 1.3482 147.146 0.990137 146.373 0.990137C145.68 0.990137 145.098 1.22931 144.628 1.7077C144.158 2.17757 143.923 2.76635 143.923 3.47401C143.923 4.20429 144.185 4.80581 144.709 5.27851C145.198 5.71727 145.729 5.93664 146.301 5.93664C146.788 5.93664 147.225 5.77246 147.613 5.44412C148.001 5.11292 148.217 4.71664 148.263 4.25525H146.628V3.3254ZM151.574 0.183409V4.13211C151.574 4.69542 151.667 5.10727 151.85 5.36768C152.125 5.74416 152.511 5.9324 153.01 5.9324C153.511 5.9324 153.898 5.74416 154.173 5.36768C154.357 5.11577 154.449 4.7039 154.449 4.13211V0.183409H155.438V4.40385C155.438 5.09453 155.223 5.66349 154.793 6.11072C154.309 6.6089 153.714 6.85801 153.01 6.85801C152.305 6.85801 151.712 6.6089 151.23 6.11072C150.8 5.66349 150.585 5.09453 150.585 4.40385V0.183409H151.574ZM159.234 3.94529L161.264 6.73912H160.053L158.181 4.05568H158.003V6.73912H157.014V0.183409H158.173C159.039 0.183409 159.664 0.346169 160.049 0.671689C160.474 1.03401 160.686 1.51238 160.686 2.10681C160.686 2.57103 160.553 2.97016 160.287 3.30416C160.021 3.63818 159.67 3.8519 159.234 3.94529ZM158.003 3.19377H158.317C159.254 3.19377 159.722 2.8357 159.722 2.11955C159.722 1.4487 159.267 1.11327 158.355 1.11327H158.003V3.19377ZM161.773 3.43155C161.773 2.50877 162.112 1.71618 162.788 1.05383C163.462 0.391459 164.271 0.0602759 165.217 0.0602759C166.151 0.0602759 166.952 0.394289 167.62 1.06231C168.291 1.73033 168.626 2.53281 168.626 3.46975C168.626 4.41235 168.289 5.21201 167.616 5.8687C166.939 6.52822 166.122 6.85801 165.166 6.85801C164.319 6.85801 163.559 6.56503 162.886 5.97909C162.144 5.33088 161.773 4.4817 161.773 3.43155ZM162.771 3.44429C162.771 4.16892 163.014 4.76477 163.501 5.23181C163.985 5.69885 164.544 5.9324 165.178 5.9324C165.866 5.9324 166.447 5.69461 166.919 5.21907C167.392 4.73788 167.628 4.15194 167.628 3.46127C167.628 2.76209 167.395 2.17616 166.928 1.70344C166.464 1.2279 165.889 0.990137 165.204 0.990137C164.522 0.990137 163.946 1.2279 163.476 1.70344C163.006 2.17333 162.771 2.75361 162.771 3.44429ZM173.577 1.15996L172.774 1.63551C172.624 1.37509 172.481 1.20527 172.345 1.12601C172.204 1.03542 172.021 0.990137 171.798 0.990137C171.523 0.990137 171.295 1.06798 171.114 1.22366C170.933 1.37651 170.842 1.56898 170.842 1.80112C170.842 2.12096 171.08 2.37855 171.556 2.57385L172.21 2.84135C172.742 3.05648 173.131 3.31972 173.377 3.63109C173.623 3.93964 173.747 4.31894 173.747 4.76901C173.747 5.37192 173.546 5.87012 173.144 6.26357C172.739 6.65985 172.237 6.85801 171.637 6.85801C171.067 6.85801 170.598 6.68957 170.227 6.35275C169.862 6.0159 169.634 5.54177 169.543 4.93035L170.545 4.70957C170.59 5.09453 170.67 5.36061 170.783 5.50779C170.987 5.79085 171.284 5.9324 171.675 5.9324C171.983 5.9324 172.239 5.82907 172.443 5.62244C172.647 5.41581 172.749 5.15396 172.749 4.83694C172.749 4.70957 172.73 4.59351 172.694 4.48877C172.66 4.3812 172.605 4.28355 172.528 4.19581C172.455 4.10522 172.358 4.02172 172.239 3.94529C172.12 3.86605 171.979 3.79103 171.815 3.72027L171.182 3.45701C170.285 3.07772 169.836 2.52292 169.836 1.79262C169.836 1.30009 170.024 0.888224 170.401 0.55705C170.777 0.223037 171.246 0.0560303 171.806 0.0560303C172.562 0.0560303 173.152 0.424011 173.577 1.15996ZM174.906 6.26357C174.906 6.10505 174.964 5.96777 175.08 5.85172C175.196 5.73566 175.335 5.67764 175.496 5.67764C175.657 5.67764 175.796 5.73566 175.912 5.85172C176.028 5.96777 176.086 6.10646 176.086 6.26781C176.086 6.43198 176.028 6.57211 175.912 6.68816C175.799 6.8014 175.66 6.85801 175.496 6.85801C175.329 6.85801 175.189 6.8014 175.076 6.68816C174.962 6.57494 174.906 6.43342 174.906 6.26357Z" fill="white"/>
<path d="M137.121 21.5795H134.315L133.585 23.1717H132.519L135.763 16.2041L138.892 23.1717H137.809L137.121 21.5795ZM136.718 20.6495L135.746 18.4205L134.727 20.6495H136.718ZM145.77 19.758H148.479V19.9745C148.479 20.4671 148.421 20.903 148.305 21.2824C148.192 21.6332 148.001 21.9617 147.732 22.2674C147.123 22.9524 146.349 23.2948 145.409 23.2948C144.492 23.2948 143.707 22.9637 143.053 22.3013C142.399 21.6361 142.072 20.8378 142.072 19.9066C142.072 18.9555 142.405 18.1488 143.07 17.4864C143.735 16.8212 144.545 16.4886 145.498 16.4886C146.011 16.4886 146.489 16.5933 146.934 16.8028C147.358 17.0123 147.776 17.3519 148.186 17.8218L147.481 18.4969C146.943 17.7808 146.288 17.4227 145.515 17.4227C144.822 17.4227 144.24 17.6619 143.77 18.1403C143.301 18.6102 143.066 19.1989 143.066 19.9066C143.066 20.6369 143.327 21.2385 143.851 21.7111C144.341 22.1498 144.872 22.3693 145.443 22.3693C145.93 22.3693 146.368 22.205 146.755 21.8767C147.143 21.5454 147.36 21.1493 147.405 20.6878H145.77V19.758ZM153.345 17.5459H150.717V19.1211H153.268V20.0509H150.717V22.2419H153.345V23.1717H149.727V16.616H153.345V17.5459ZM154.644 23.1717V16.1702L159.425 21.1719V16.616H160.415V23.5708L155.633 18.5819V23.1717H154.644ZM163.798 17.5459V23.1717H162.809V17.5459H161.302V16.616H165.302V17.5459H163.798ZM169.802 17.5459H167.174V19.1211H169.726V20.0509H167.174V22.2419H169.802V23.1717H166.185V16.616H169.802V17.5459Z" fill="white"/>
<path d="M136.977 34.0252L136.175 34.5006C136.025 34.2404 135.882 34.0704 135.746 33.9912C135.604 33.9006 135.422 33.8554 135.198 33.8554C134.923 33.8554 134.695 33.9332 134.514 34.0889C134.333 34.2417 134.243 34.4341 134.243 34.6662C134.243 34.9862 134.48 35.2436 134.956 35.4391L135.61 35.7065C136.142 35.9217 136.531 36.1849 136.777 36.4962C137.024 36.8047 137.147 37.1841 137.147 37.6341C137.147 38.2371 136.946 38.7354 136.544 39.1286C136.139 39.5249 135.637 39.7232 135.037 39.7232C134.468 39.7232 133.998 39.5547 133.627 39.218C133.262 38.881 133.034 38.4069 132.943 37.7956L133.945 37.5747C133.991 37.9597 134.07 38.2258 134.183 38.373C134.387 38.656 134.684 38.7976 135.075 38.7976C135.383 38.7976 135.64 38.6943 135.843 38.4876C136.047 38.281 136.149 38.0191 136.149 37.7021C136.149 37.5747 136.131 37.4586 136.094 37.3539C136.06 37.2465 136.005 37.1486 135.928 37.061C135.855 36.9704 135.759 36.8869 135.64 36.8104C135.521 36.7312 135.379 36.6562 135.215 36.5854L134.582 36.3221C133.685 35.943 133.236 35.388 133.236 34.6578C133.236 34.1652 133.425 33.7534 133.801 33.4221C134.177 33.0882 134.646 32.9212 135.207 32.9212C135.962 32.9212 136.552 33.2893 136.977 34.0252ZM141.957 33.9784H139.329V35.5536H141.881V36.4836H139.329V38.6745H141.957V39.6043H138.34V33.0486H141.957V33.9784ZM146.929 33.0486V39.6043H145.94V33.0486H146.929ZM148.275 39.6043L149.655 32.556L151.906 37.6512L154.237 32.556L155.477 39.6043H154.462L153.829 35.6471L151.889 39.9058L150.004 35.6428L149.299 39.6043H148.275ZM157.859 36.9421V39.6043H156.869V33.0486H157.99C158.539 33.0486 158.954 33.0869 159.234 33.1632C159.517 33.2397 159.766 33.3841 159.981 33.5962C160.358 33.9643 160.546 34.4284 160.546 34.9891C160.546 35.5891 160.345 36.0645 159.943 36.4156C159.541 36.7667 158.999 36.9421 158.317 36.9421H157.859ZM157.859 36.0249H158.228C159.137 36.0249 159.591 35.6754 159.591 34.9762C159.591 34.2997 159.122 33.9615 158.185 33.9615H157.859V36.0249ZM161.238 36.2967C161.238 35.3739 161.577 34.5815 162.253 33.9191C162.927 33.2567 163.736 32.9254 164.682 32.9254C165.616 32.9254 166.417 33.2595 167.085 33.9276C167.756 34.5956 168.091 35.398 168.091 36.3349C168.091 37.2776 167.754 38.0771 167.081 38.7339C166.404 39.3934 165.587 39.7232 164.631 39.7232C163.784 39.7232 163.024 39.4302 162.351 38.8443C161.609 38.196 161.238 37.3469 161.238 36.2967ZM162.236 36.3095C162.236 37.0341 162.479 37.6299 162.966 38.0969C163.45 38.5641 164.009 38.7976 164.644 38.7976C165.331 38.7976 165.912 38.5597 166.384 38.0843C166.857 37.603 167.093 37.0171 167.093 36.3265C167.093 35.6273 166.86 35.0412 166.393 34.5686C165.929 34.093 165.354 33.8554 164.669 33.8554C163.987 33.8554 163.411 34.093 162.941 34.5686C162.471 35.0384 162.236 35.6189 162.236 36.3095ZM171.556 36.8104L173.585 39.6043H172.375L170.503 36.9208H170.324V39.6043H169.335V33.0486H170.494C171.36 33.0486 171.986 33.2112 172.371 33.5369C172.796 33.8993 173.008 34.3776 173.008 34.9719C173.008 35.4362 172.875 35.8354 172.609 36.1693C172.343 36.5034 171.992 36.7171 171.556 36.8104ZM170.324 36.0589H170.639C171.576 36.0589 172.044 35.7008 172.044 34.9847C172.044 34.3139 171.588 33.9784 170.677 33.9784H170.324V36.0589ZM176.307 33.9784V39.6043H175.318V33.9784H173.81V33.0486H177.81V33.9784H176.307ZM182.188 38.0121H179.381L178.651 39.6043H177.585L180.829 32.6367L183.958 39.6043H182.875L182.188 38.0121ZM181.784 37.0821L180.812 34.8532L179.793 37.0821H181.784ZM185.071 39.1286C185.071 38.9702 185.129 38.833 185.245 38.7169C185.361 38.6008 185.499 38.5428 185.661 38.5428C185.822 38.5428 185.961 38.6008 186.077 38.7169C186.193 38.833 186.251 38.9717 186.251 39.133C186.251 39.2971 186.193 39.4373 186.077 39.5534C185.964 39.6665 185.825 39.7232 185.661 39.7232C185.494 39.7232 185.354 39.6665 185.24 39.5534C185.127 39.4402 185.071 39.2986 185.071 39.1286Z" fill="white"/>
</g>
<defs>
<clipPath id="clip0_2299_829">
<rect width="186.304" height="40" fill="white"/>
</clipPath>
</defs>
</svg>
