<svg xmlns="http://www.w3.org/2000/svg" xmlns:xlink="http://www.w3.org/1999/xlink" id="Camada_1" x="0px" y="0px" viewBox="0 0 607.7 198.5" style="enable-background:new 0 0 607.7 198.5;" xml:space="preserve"><style type="text/css">	.st0{fill:#5AB3E4;}</style><g>	<path class="st0" d="M179,118L110.8,0L97.4,23.2L159,129.6c4,6.9,5.1,15,3,22.7s-7,14.2-13.9,18.1c-6.9,4-15,5.1-22.7,3  s-14.2-7-18.1-13.9L62.9,82.9L49.6,106l1.7,2.9L0,198.5h57l13.4-23.2H40l24.7-43.2L87.2,171c7.1,12.3,18.5,21,32.2,24.7  c4.6,1.2,9.2,1.8,13.8,1.8c9.2,0,18.3-2.4,26.5-7.1c12.3-7.1,21-18.5,24.7-32.2C188,144.6,186.1,130.3,179,118z"></path>	<g>		<path class="st0" d="M285.8,0c45.9,0,68.8,16.3,68.8,49.1c0,32.4-22.8,48.7-68.8,49.1l-20.3,0.2v32.4h-45.4V0H285.8z M281.9,70.9   c17.5,0,26.1-7.2,26.1-21.6c0-15.2-8.4-22-26.1-22h-16.3v43.6H281.9z"></path>		<path class="st0" d="M422,98h65.3v32.8H376.5V0H422V98z"></path>		<path class="st0" d="M607.7,0v31.1h-42v99.7h-44.3V31.1h-42.2V0H607.7z"></path>	</g>	<g>		<path class="st0" d="M220.1,181.9c0-10.7,5.2-16.7,14.6-16.7c8.1,0,13.1,4.4,13.6,12.4H241c-0.6-4.1-2.8-6.4-6.3-6.4   c-4.6,0-7.1,3.7-7.1,10.8c0,7,2.5,10.7,7.1,10.7c3.6,0,5.8-2.3,6.4-6.4h7.4c-0.6,7.9-5.4,12.4-13.7,12.4   C225.3,198.5,220.1,192.6,220.1,181.9z"></path>		<path class="st0" d="M253.7,181.9c0-10.7,5.2-16.7,14.6-16.7s14.6,6,14.6,16.7s-5.1,16.6-14.6,16.6   C259,198.5,253.7,192.6,253.7,181.9z M275.6,181.9c0-7.3-2.4-11-7.3-11s-7.3,3.7-7.3,11s2.4,10.9,7.3,10.9   C273.2,192.8,275.6,189.2,275.6,181.9z"></path>		<path class="st0" d="M314.7,194c0,1.5,0.3,2.5,0.8,3v1h-7.1c-0.6-0.7-0.9-1.9-0.9-3.4v-4c0-3.2-1.5-4.8-5.3-4.8h-5.6V198h-7.1   v-32.3H304c7.5,0,11,3.2,11,8.5c0,3.7-1.9,6.5-4.8,7.5l-2.6-0.2v0.7c4.7,0.5,7.1,2.9,7.1,7.8V194z M302.1,180.6   c3.9,0,5.7-1.9,5.7-4.9c0-3.2-1.9-4.8-5.7-4.8h-5.6v9.7H302.1z"></path>		<path class="st0" d="M346.9,194c0,1.5,0.3,2.5,0.8,3v1h-7.1c-0.6-0.7-0.9-1.9-0.9-3.4v-4c0-3.2-1.5-4.8-5.3-4.8h-5.6V198h-7.1   v-32.3h14.6c7.5,0,11,3.2,11,8.5c0,3.7-1.9,6.5-4.8,7.5l-2.6-0.2v0.7c4.7,0.5,7.1,2.9,7.1,7.8v4H346.9z M334.3,180.6   c3.9,0,5.7-1.9,5.7-4.9c0-3.2-1.9-4.8-5.7-4.8h-5.6v9.7H334.3z"></path>		<path class="st0" d="M360.4,192.4H376v5.6h-22.2v-32.3h21.9v5.6h-15.4v7.6h13.2v5.3h-13.2v8.2H360.4z"></path>		<path class="st0" d="M404.7,165.7v5.8h-9V198h-6.6v-26.5H380v-5.8H404.7z"></path>		<path class="st0" d="M407.9,181.9c0-10.7,5.2-16.7,14.6-16.7s14.6,6,14.6,16.7s-5.1,16.6-14.6,16.6   C413.2,198.5,407.9,192.6,407.9,181.9z M429.8,181.9c0-7.3-2.4-11-7.3-11s-7.3,3.7-7.3,11s2.4,10.9,7.3,10.9   C427.4,192.8,429.8,189.2,429.8,181.9z"></path>		<path class="st0" d="M468.9,194c0,1.5,0.3,2.5,0.8,3v1h-7.1c-0.6-0.7-0.9-1.9-0.9-3.4v-4c0-3.2-1.5-4.8-5.3-4.8h-5.6V198h-7.1   v-32.3h14.6c7.5,0,11,3.2,11,8.5c0,3.7-1.9,6.5-4.8,7.5l-2.6-0.2v0.7c4.7,0.5,7.1,2.9,7.1,7.8v4H468.9z M456.3,180.6   c3.9,0,5.7-1.9,5.7-4.9c0-3.2-1.9-4.8-5.7-4.8h-5.6v9.7H456.3z"></path>		<path class="st0" d="M493.6,165.7l10.2,31.2v1.1h-6.7l-1.8-5.5H482l-1.7,5.5h-6.6v-1.1l10.2-31.2H493.6z M483.7,187.2h9.9   l-4.1-12.8l-0.5-3.2h-0.9l-0.5,3.2L483.7,187.2z"></path>	</g></g></svg>